# Blender v2.81 (sub 16) OBJ File: 'lopost.blend'
# www.blender.org
mtllib lopost.mtl
o drone_costum_Cube
v 0.047963 0.368943 0.273492
v 0.047963 0.502784 0.273492
v 0.281831 0.368943 -0.013578
v 0.281831 0.502784 -0.013578
v -0.278211 0.368943 0.007766
v -0.278211 0.502784 0.007766
v -0.044343 0.368943 -0.279303
v -0.044343 0.502784 -0.279303
v 0.100129 0.411508 0.268210
v 0.100129 0.460219 0.268210
v 0.287204 0.460219 0.038578
v 0.287204 0.411508 0.038578
v -0.096506 0.411508 -0.274020
v -0.096506 0.460219 -0.274020
v -0.283581 0.460219 -0.044388
v -0.283581 0.411508 -0.044388
v 1.704654 0.419852 1.509935
v 1.704654 0.451875 1.509935
v 1.827640 0.451875 1.358971
v 1.827640 0.419852 1.358971
v -1.701033 0.419852 -1.515746
v -1.701033 0.451875 -1.515746
v -1.824019 0.451875 -1.364782
v -1.824019 0.419852 -1.364782
v -1.537993 0.460219 -1.448361
v -1.537993 0.411508 -1.448361
v -1.725068 0.460219 -1.218729
v -1.725068 0.411508 -1.218729
v 1.540570 0.460219 1.441699
v 1.540570 0.411508 1.441699
v 1.727645 0.460219 1.212067
v 1.727645 0.411508 1.212067
v 0.135611 0.368943 -0.035363
v -0.002930 0.368943 0.134693
v 0.099774 0.368943 -0.123153
v 1.060423 0.411508 1.050536
v 0.580276 0.411508 0.659373
v 0.580276 0.460219 0.659373
v 1.060423 0.460219 1.050536
v 0.767351 0.460219 0.429741
v 1.247498 0.460219 0.820904
v 0.767351 0.411508 0.429741
v 1.247498 0.411508 0.820904
v -1.057498 0.411508 -1.056914
v -0.577002 0.411508 -0.665467
v -0.577002 0.460219 -0.665467
v -1.057498 0.460219 -1.056914
v -0.764077 0.460219 -0.435835
v -1.244572 0.460219 -0.827282
v -0.764077 0.411508 -0.435835
v -1.244572 0.411508 -0.827282
v 0.281831 0.368943 -0.013578
v 0.281831 0.368943 -0.013578
v 0.281831 0.368943 -0.013578
v 0.047963 0.368943 0.273492
v 0.047963 0.368943 0.273492
v 0.047963 0.502784 0.273492
v 0.047963 0.502784 0.273492
v 0.281831 0.502784 -0.013578
v 0.281831 0.502784 -0.013578
v 0.281831 0.502784 -0.013578
v -0.044343 0.368943 -0.279303
v -0.044343 0.368943 -0.279303
v -0.044343 0.502784 -0.279303
v -0.044343 0.502784 -0.279303
v -0.278211 0.368943 0.007766
v -0.278211 0.368943 0.007766
v -0.278211 0.368943 0.007766
v -0.278211 0.502784 0.007766
v -0.278211 0.502784 0.007766
v -0.278211 0.502784 0.007766
v 0.287204 0.460219 0.038578
v 0.287204 0.460219 0.038578
v 0.287204 0.460219 0.038578
v 0.100129 0.460219 0.268210
v 0.100129 0.460219 0.268210
v 0.287204 0.411508 0.038578
v 0.287204 0.411508 0.038578
v 0.287204 0.411508 0.038578
v 0.100129 0.411508 0.268210
v 0.100129 0.411508 0.268210
v -0.283581 0.460219 -0.044388
v -0.283581 0.460219 -0.044388
v -0.283581 0.460219 -0.044388
v -0.096506 0.460219 -0.274020
v -0.096506 0.460219 -0.274020
v -0.283581 0.411508 -0.044388
v -0.283581 0.411508 -0.044388
v -0.283581 0.411508 -0.044388
v -0.096506 0.411508 -0.274020
v -0.096506 0.411508 -0.274020
v 1.704654 0.451875 1.509935
v 1.704654 0.451875 1.509935
v 1.704654 0.419852 1.509935
v 1.704654 0.419852 1.509935
v 1.827640 0.451875 1.358971
v 1.827640 0.451875 1.358971
v 1.827640 0.419852 1.358971
v 1.827640 0.419852 1.358971
v 1.540570 0.460219 1.441699
v 0.580276 0.411508 0.659373
v 1.727645 0.460219 1.212067
v 1.727645 0.411508 1.212067
v -1.701033 0.451875 -1.515746
v -1.701033 0.451875 -1.515746
v -1.701033 0.419852 -1.515746
v -1.701033 0.419852 -1.515746
v -1.824019 0.451875 -1.364782
v -1.824019 0.451875 -1.364782
v -1.824019 0.419852 -1.364782
v -1.824019 0.419852 -1.364782
v -1.537993 0.460219 -1.448361
v -0.577002 0.411508 -0.665467
v -1.725068 0.460219 -1.218729
v -1.725068 0.411508 -1.218729
v -1.057498 0.460219 -1.056914
v -1.537993 0.411508 -1.448361
v -1.244572 0.460219 -0.827282
v -1.244572 0.411508 -0.827282
v 1.060423 0.460219 1.050536
v 1.540570 0.411508 1.441699
v 1.247498 0.460219 0.820904
v 1.247498 0.411508 0.820904
v 0.093069 0.368943 0.071440
v 0.099774 0.368943 -0.123153
v 0.135611 0.368943 -0.035363
v -0.089448 0.368943 -0.077251
v 0.006551 0.368943 -0.140505
v -0.096152 0.368943 0.117343
v -0.131990 0.368943 0.029552
v 1.060423 0.411508 1.050536
v 0.580276 0.460219 0.659373
v 0.767351 0.460219 0.429741
v 0.767351 0.411508 0.429741
v -1.057498 0.411508 -1.056914
v -0.577002 0.460219 -0.665467
v -0.764077 0.460219 -0.435835
v -0.764077 0.411508 -0.435835
vt 0.000000 0.000000
vt 0.000000 0.000000
vt 0.000000 0.000000
vt 0.000000 0.000000
vt 0.000000 0.000000
vt 0.000000 0.000000
vt 0.000000 0.000000
vt 0.000000 0.000000
vt 0.000000 0.000000
vt 0.000000 0.000000
vt 0.000000 0.000000
vt 0.000000 0.000000
vt 0.000000 0.000000
vt 0.000000 0.000000
vt 0.000000 0.000000
vt 0.000000 0.000000
vt 0.000000 0.000000
vt 0.000000 0.000000
vt 0.000000 0.000000
vt 0.000000 0.000000
vt 0.000000 0.000000
vt 0.000000 0.000000
vt 0.000000 0.000000
vt 0.000000 0.000000
vt 0.000000 0.000000
vt 0.000000 0.000000
vt 0.000000 0.000000
vt 0.000000 0.000000
vt 0.000000 0.000000
vt 0.000000 0.000000
vt 0.000000 0.000000
vt 0.000000 0.000000
vt 0.000000 0.000000
vt 0.000000 0.000000
vt 0.000000 0.000000
vt 0.000000 0.000000
vt 0.000000 0.000000
vt 0.000000 0.000000
vt 0.000000 0.000000
vt 0.000000 0.000000
vt 0.000000 0.000000
vt 0.000000 0.000000
vt 0.000000 0.000000
vt 0.000000 0.000000
vt 0.000000 0.000000
vt 0.000000 0.000000
vt 0.000000 0.000000
vt 0.000000 0.000000
vt 0.000000 0.000000
vt 0.000000 0.000000
vt 0.000000 0.000000
vt 0.000000 0.000000
vt 0.000000 0.000000
vt 0.000000 0.000000
vt 0.000000 0.000000
vt 0.000000 0.000000
vt 0.000000 0.000000
vt 0.000000 0.000000
vt 0.000000 0.000000
vt 0.000000 0.000000
vt 0.000000 0.000000
vt 0.000000 0.000000
vt 0.000000 0.000000
vt 0.000000 0.000000
vt 0.000000 0.000000
vt 0.000000 0.000000
vt 0.000000 0.000000
vt 0.000000 0.000000
vt 0.000000 0.000000
vt 0.000000 0.000000
vt 0.000000 0.000000
vt 0.000000 0.000000
vt 0.000000 0.000000
vt 0.000000 0.000000
vt 0.000000 0.000000
vt 0.000000 0.000000
vt 0.000000 0.000000
vt 0.000000 0.000000
vt 0.000000 0.000000
vt 0.000000 0.000000
vt 0.000000 0.000000
vt 0.000000 0.000000
vt 0.000000 0.000000
vt 0.000000 0.000000
vt 0.000000 0.000000
vt 0.000000 0.000000
vt 0.000000 0.000000
vt 0.000000 0.000000
vt 0.000000 0.000000
vt 0.000000 0.000000
vt 0.000000 0.000000
vt 0.000000 0.000000
vt 0.000000 0.000000
vt 0.000000 0.000000
vt 0.000000 0.000000
vt 0.000000 0.000000
vt 0.000000 0.000000
vt 0.000000 0.000000
vt 0.000000 0.000000
vt 0.000000 0.000000
vt 0.000000 0.000000
vt 0.000000 0.000000
vt 0.000000 0.000000
vt 0.000000 0.000000
vt 0.000000 0.000000
vt 0.000000 0.000000
vt 0.000000 0.000000
vt 0.000000 0.000000
vt 0.000000 0.000000
vt 0.000000 0.000000
vt 0.000000 0.000000
vt 0.000000 0.000000
vt 0.000000 0.000000
vt 0.000000 0.000000
vt 0.000000 0.000000
vt 0.000000 0.000000
vt 0.000000 0.000000
vt 0.000000 0.000000
vt 0.000000 0.000000
vt 0.000000 0.000000
vt 0.000000 0.000000
vt 0.000000 0.000000
vt 0.000000 0.000000
vt 0.000000 0.000000
vt 0.000000 0.000000
vt 0.000000 0.000000
vt 0.000000 0.000000
vt 0.000000 0.000000
vt 0.000000 0.000000
vt 0.000000 0.000000
vt 0.000000 0.000000
vt 0.000000 0.000000
vt 0.000000 0.000000
vt 0.000000 0.000000
vt 0.000000 0.000000
vt 0.000000 0.000000
vn 0.7753 0.0000 0.6316
vn 0.0000 -1.0000 0.0000
vn -0.7753 0.0000 -0.6316
vn -0.0172 -0.9997 -0.0140
vn -0.6316 0.0000 0.7753
vn -0.7360 0.0000 0.6769
vn 0.0000 1.0000 0.0000
vn -0.0172 0.9997 -0.0140
vn 0.6316 0.0000 -0.7753
vn 0.5141 0.0000 -0.8577
vn 0.0170 -0.9998 0.0139
vn 0.7353 0.0000 -0.6777
vn 0.0170 0.9998 0.0139
vn -0.5150 0.0000 0.8571
vn -0.2160 0.0000 0.9764
vn 0.2159 0.0000 -0.9764
vn -0.3840 0.0000 0.9233
vn 0.3945 0.0000 -0.9189
vn -0.3945 0.0000 0.9189
vn 0.5844 0.6571 0.4761
vn 0.9947 0.0000 -0.1025
vn 0.5844 -0.6571 0.4761
vn -0.5844 0.6571 -0.4761
vn -0.9947 0.0000 0.1024
vn -0.5844 -0.6571 -0.4761
vn 0.0379 0.9988 0.0309
vn 0.8267 0.0000 -0.5627
vn 0.0379 -0.9988 0.0309
vn 0.3819 0.0000 -0.9242
vn -0.0382 0.9988 -0.0311
vn -0.8279 0.0000 0.5609
vn -0.0382 -0.9988 -0.0311
usemtl col_master
s 1
f 98/1/1 93/2/1 95/3/1
f 127/4/2 130/5/2 66/6/2
f 110/7/3 104/8/3 106/9/3
f 119/10/2 26/11/4 135/12/2
f 118/13/5 115/14/6 51/15/5
f 49/16/7 25/17/8 114/18/8
f 44/19/9 112/20/10 47/21/9
f 123/22/2 30/23/11 131/24/2
f 122/25/9 103/26/12 43/27/9
f 41/28/7 29/29/13 102/30/13
f 39/31/5 121/32/14 100/33/14
f 3/34/2 125/35/2 63/36/2
f 124/37/2 126/38/2 3/34/2
f 66/6/2 129/39/2 1/40/2
f 75/41/15 101/42/5 132/43/5
f 74/44/7 38/45/7 133/46/7
f 11/47/9 134/48/9 79/49/9
f 12/50/2 37/51/2 9/52/2
f 90/53/16 136/54/9 85/55/16
f 84/56/7 46/57/7 137/58/7
f 15/59/5 138/60/5 89/61/5
f 16/62/2 45/63/2 13/64/2
f 98/1/1 96/65/1 93/2/1
f 66/6/2 63/36/2 127/4/2
f 63/36/2 128/66/2 127/4/2
f 110/7/3 108/67/3 104/8/3
f 119/10/2 28/68/4 26/11/4
f 118/13/5 27/69/6 115/14/6
f 49/16/7 116/70/7 25/17/8
f 44/19/9 117/71/10 112/20/10
f 123/22/2 32/72/11 30/23/11
f 122/25/9 31/73/12 103/26/12
f 41/28/7 120/74/7 29/29/13
f 39/31/5 36/75/5 121/32/14
f 3/34/2 126/38/2 125/35/2
f 125/35/2 128/66/2 63/36/2
f 3/34/2 1/40/2 124/37/2
f 1/40/2 34/76/2 124/37/2
f 66/6/2 130/5/2 129/39/2
f 129/39/2 34/76/2 1/40/2
f 75/41/15 80/77/15 101/42/5
f 74/44/7 10/78/7 38/45/7
f 11/47/9 40/79/9 134/48/9
f 12/50/2 42/80/2 37/51/2
f 90/53/16 113/81/9 136/54/9
f 84/56/7 14/82/7 46/57/7
f 15/59/5 48/83/5 138/60/5
f 16/62/2 50/84/2 45/63/2
usemtl col_1
f 121/32/14 92/85/17 100/33/14
f 62/86/18 60/87/9 53/88/9
f 56/89/19 70/90/5 67/91/5
f 65/92/7 58/93/7 59/94/7
f 57/95/19 80/77/15 75/41/15
f 61/96/20 76/97/20 72/98/20
f 4/99/21 77/100/21 54/101/21
f 52/102/22 81/103/22 55/104/22
f 62/86/18 85/55/16 64/105/18
f 71/106/23 86/107/23 82/108/23
f 6/109/24 87/110/24 68/111/24
f 5/112/25 91/113/25 7/114/25
f 102/30/13 18/115/26 97/116/26
f 31/73/12 99/117/27 103/26/12
f 32/72/11 17/118/28 30/23/11
f 117/71/10 105/119/29 112/20/10
f 114/18/8 22/120/30 109/121/30
f 27/69/6 111/122/31 115/14/6
f 28/68/4 21/123/32 26/11/4
f 132/43/5 36/75/5 39/31/5
f 133/46/7 120/74/7 41/28/7
f 40/79/9 43/27/9 134/48/9
f 42/80/2 131/24/2 37/51/2
f 113/81/9 47/21/9 136/54/9
f 137/58/7 116/70/7 49/16/7
f 48/83/5 51/15/5 138/60/5
f 50/84/2 135/12/2 45/63/2
f 121/32/14 94/124/17 92/85/17
f 62/86/18 64/105/18 60/87/9
f 56/89/19 57/95/19 70/90/5
f 65/92/7 69/125/7 58/93/7
f 57/95/19 56/89/19 80/77/15
f 61/96/20 2/126/20 76/97/20
f 4/99/21 73/127/21 77/100/21
f 52/102/22 78/128/22 81/103/22
f 62/86/18 90/53/16 85/55/16
f 71/106/23 8/129/23 86/107/23
f 6/109/24 83/130/24 87/110/24
f 5/112/25 88/131/25 91/113/25
f 102/30/13 29/29/13 18/115/26
f 31/73/12 19/132/27 99/117/27
f 32/72/11 20/133/28 17/118/28
f 117/71/10 107/134/29 105/119/29
f 114/18/8 25/17/8 22/120/30
f 27/69/6 23/135/31 111/122/31
f 28/68/4 24/136/32 21/123/32
f 132/43/5 101/42/5 36/75/5
f 133/46/7 38/45/7 120/74/7
f 40/79/9 122/25/9 43/27/9
f 42/80/2 123/22/2 131/24/2
f 113/81/9 44/19/9 47/21/9
f 137/58/7 46/57/7 116/70/7
f 48/83/5 118/13/5 51/15/5
f 50/84/2 119/10/2 135/12/2
l 33 35
